<svg display="none" xmlns="http://www.w3.org/2000/svg">

    <symbol id="paper-plane" viewBox="0 0 24 24">
        <path d="m8.75 17.612v4.638c0 .324.208.611.516.713.077.025.156.037.234.037.234 0 .46-.11.604-.306l2.713-3.692z"/>
        <path d="m23.685.139c-.23-.163-.532-.185-.782-.054l-22.5 11.75c-.266.139-.423.423-.401.722.023.3.222.556.505.653l6.255 2.138 13.321-11.39-10.308 12.419 10.483 3.583c.078.026.16.04.242.04.136 0 .271-.037.39-.109.19-.116.319-.311.352-.53l2.75-18.5c.041-.28-.077-.558-.307-.722z"/>

    </symbol>

    <symbol id="puzzle" viewBox="0 0 512 512">
        <g>
            <path d="M465.677,241.757c14.844,0,28.569,4.753,39.77,12.8V108.025h-139.88c8.046-11.2,12.8-24.926,12.8-39.77
			C378.367,30.559,347.808,0,310.112,0c-37.696,0-68.255,30.559-68.255,68.255c0,14.844,4.754,28.569,12.8,39.77h-139.88v145.22
			c-11.236-8.134-25.037-12.942-39.969-12.942c-37.696,0-68.255,30.559-68.255,68.255s30.559,68.255,68.255,68.255
			c14.932,0,28.733-4.808,39.969-12.942V512h139.88c-8.047-11.2-12.8-24.926-12.8-39.77c0-37.696,30.559-68.255,68.255-68.255
			c37.696,0,68.255,30.559,68.255,68.255c0,14.844-4.753,28.569-12.8,39.77h139.88V365.467c-11.2,8.047-24.926,12.8-39.77,12.8
			c-37.696,0-68.255-30.559-68.255-68.255C397.422,272.316,427.981,241.757,465.677,241.757z"/>
        </g>

    </symbol>

    <symbol id="life-saver" viewBox="0 0 419.334 419.334">
        <path d="M402.519,127.636c-1.253-2.918-4.563-4.354-7.552-3.275l-1.435,0.519c-20.195-43.618-55.46-78.883-99.078-99.078
	l0.519-1.434c1.08-2.987-0.355-6.298-3.274-7.552C265.728,5.658,238.129,0,209.667,0s-56.062,5.658-82.031,16.816
	c-2.919,1.254-4.354,4.564-3.275,7.552l0.519,1.434c-43.617,20.194-78.883,55.46-99.076,99.077l-1.436-0.519
	c-2.986-1.08-6.298,0.356-7.552,3.275C5.657,153.605,0,181.204,0,209.666c0,28.461,5.657,56.061,16.815,82.032
	c0.972,2.262,3.179,3.633,5.514,3.633c0.678,0,1.366-0.115,2.038-0.358l1.436-0.519c20.193,43.618,55.458,78.883,99.076,99.078
	l-0.519,1.434c-1.08,2.987,0.355,6.298,3.275,7.552c25.97,11.158,53.569,16.816,82.031,16.816s56.061-5.658,82.031-16.816
	c2.919-1.254,4.354-4.565,3.274-7.552l-0.519-1.434c43.618-20.195,78.884-55.46,99.078-99.078l1.435,0.519
	c0.672,0.243,1.36,0.358,2.038,0.358c2.335,0,4.542-1.371,5.514-3.633c11.158-25.97,16.815-53.568,16.815-82.03
	C419.334,181.207,413.677,153.607,402.519,127.636z M290.359,37.133c40.295,18.921,72.921,51.547,91.842,91.842l-69.572,25.143
	c-10.853-20.032-27.38-36.56-47.412-47.411L290.359,37.133z M144.542,24.852c3.111-1.122,6.555,0.492,7.679,3.61l12.534,34.772
	c1.124,3.117-0.492,6.555-3.61,7.679c-0.672,0.242-1.358,0.357-2.034,0.357c-2.458,0-4.763-1.521-5.645-3.968L140.932,32.53
	C139.808,29.413,141.424,25.976,144.542,24.852z M128.975,37.133l25.143,69.573c-20.032,10.852-36.56,27.379-47.41,47.412
	l-69.573-25.143C56.055,88.681,88.681,56.055,128.975,37.133z M30.496,278.76c-2.457,0-4.763-1.521-5.644-3.967
	c-1.124-3.117,0.492-6.556,3.609-7.68l34.771-12.535c3.115-1.123,6.555,0.491,7.68,3.609c1.124,3.117-0.492,6.556-3.609,7.68
	l-34.771,12.535C31.859,278.645,31.172,278.76,30.496,278.76z M128.975,382.201c-40.294-18.922-72.92-51.548-91.841-91.843
	l69.573-25.143c10.852,20.033,27.378,36.561,47.411,47.412L128.975,382.201z M104.658,209.667
	c0-57.902,47.106-105.01,105.009-105.01c57.903,0,105.011,47.107,105.011,105.01s-47.107,105.01-105.011,105.01
	C151.765,314.677,104.658,267.569,104.658,209.667z M274.792,394.482c-0.671,0.242-1.358,0.358-2.034,0.358
	c-2.458,0-4.763-1.522-5.645-3.968L254.579,356.1c-1.124-3.117,0.492-6.555,3.61-7.679c3.116-1.123,6.555,0.492,7.679,3.61
	l12.534,34.772C279.526,389.921,277.91,393.358,274.792,394.482z M290.359,382.201l-25.143-69.573
	c20.032-10.852,36.561-27.379,47.412-47.411l69.572,25.143C363.28,330.654,330.654,363.28,290.359,382.201z M390.873,152.221
	l-34.772,12.535c-0.672,0.242-1.359,0.357-2.035,0.357c-2.457,0-4.763-1.521-5.645-3.967c-1.124-3.117,0.492-6.556,3.609-7.68
	l34.771-12.535c3.114-1.124,6.555,0.491,7.68,3.609C395.607,147.658,393.99,151.097,390.873,152.221z"/>

    </symbol>

    <symbol id="atom" viewBox="0 0 512 512">
        <g>
            <path d="M451.403,273.574c-4.433-5.868-9.266-11.731-14.398-17.574c5.132-5.843,9.965-11.706,14.398-17.574
			c32.912-43.574,42.255-82.792,26.296-110.426c-2.419-4.19-5.416-8.048-8.91-11.53c3.355-6.499,5.285-13.851,5.285-21.655
			c0-26.139-21.269-47.407-47.407-47.407c-26.044,0-47.241,21.119-47.393,47.13c-10.465,0.873-21.402,2.456-32.711,4.722
			C325.941,38.53,293.341,0,256,0c-37.329,0-69.92,38.507-90.544,99.205C102.602,86.73,52.961,95.68,34.296,128
			c-15.954,27.634-6.611,66.852,26.301,110.426c4.433,5.868,9.267,11.731,14.399,17.574c-5.132,5.842-9.966,11.706-14.399,17.574
			c-32.912,43.574-42.255,82.792-26.301,110.421c1.752,3.038,3.818,5.913,6.146,8.587c-1.606,4.756-2.516,9.83-2.516,15.122
			c0,26.139,21.269,47.407,47.407,47.407c22.758,0,41.809-16.127,46.361-37.549c10.763-0.853,22.057-2.491,33.738-4.836
			C186.056,473.464,218.657,512,256,512c37.333,0,69.927-38.515,90.551-99.222c18.035,3.579,35.017,5.449,50.454,5.449
			c38.347,0,67.394-11.185,80.699-34.227C493.657,356.366,484.315,317.148,451.403,273.574z M426.667,66.37
			c15.685,0,28.444,12.759,28.444,28.444s-12.759,28.444-28.444,28.444s-28.444-12.759-28.444-28.444
			C398.222,79.13,410.982,66.37,426.667,66.37z M345.255,177.558c-10.421-6.943-21.226-13.663-32.366-20.095
			c-11.255-6.498-22.491-12.498-33.648-18.024c18.565-7.421,36.81-13.404,54.307-17.829
			C338.391,138.812,342.352,157.611,345.255,177.558z M256,18.963c28.41,0,54.38,33.18,71.928,84.553
			c-23.09,5.911-47.329,14.382-71.816,25.105c-24.918-10.96-49.163-19.358-72.015-25.177C201.646,52.112,227.604,18.963,256,18.963z
			 M178.439,121.664c17.301,4.405,35.551,10.409,54.256,17.861c-11.237,5.55-22.462,11.517-33.583,17.938
			c-11.139,6.432-21.943,13.151-32.365,20.095C169.646,157.632,173.602,138.853,178.439,121.664z M50.722,137.482
			c9.759-16.907,32.5-24.986,63.056-24.986c13.876,0,29.403,1.727,46.014,4.988c-6.372,22.667-11.192,47.854-14.157,74.864
			c-21.54,15.83-41.002,32.57-57.704,49.677c-4.334-5.002-8.412-10.016-12.199-15.029C48.106,190.426,38.991,157.801,50.722,137.482
			z M143.431,294.169c-15.704-12.359-30.044-25.166-42.66-38.169c12.616-13.004,26.956-25.81,42.66-38.168
			C142.638,230.26,142.222,243,142.222,256S142.638,281.74,143.431,294.169z M85.333,436.148c-15.685,0-28.444-12.759-28.444-28.444
			s12.759-28.444,28.444-28.444s28.444,12.759,28.444,28.444C113.778,423.389,101.019,436.148,85.333,436.148z M131.83,398.51
			c-4.295-21.752-23.503-38.214-46.497-38.214c-13.476,0-25.627,5.681-34.267,14.739c-0.107-0.177-0.241-0.339-0.344-0.517
			c-11.731-20.32-2.616-52.945,25.009-89.514c3.787-5.013,7.865-10.027,12.199-15.029c16.701,17.106,36.164,33.848,57.704,49.677
			c2.966,27.022,7.79,52.22,14.167,74.896C150.137,396.421,140.796,397.737,131.83,398.51z M166.747,334.442
			c10.421,6.943,21.226,13.663,32.365,20.095c11.26,6.5,22.493,12.459,33.655,17.987c-18.554,7.413-36.815,13.429-54.315,17.859
			C173.609,373.183,169.648,354.386,166.747,334.442z M256,493.037c-28.409,0-54.377-33.18-71.926-84.549
			c23.099-5.92,47.364-14.417,71.835-25.125c24.905,10.953,49.151,19.383,71.993,25.201
			C310.352,459.891,284.396,493.037,256,493.037z M333.567,390.321c-17.318-4.409-35.567-10.369-54.29-17.831
			c11.257-5.555,22.494-11.534,33.612-17.953c11.14-6.432,21.944-13.152,32.366-20.095
			C342.356,354.362,338.402,373.137,333.567,390.321z M348.282,309.323c-14.148,10.05-29.148,19.709-44.875,28.788
			c-15.669,9.046-31.547,17.213-47.358,24.442c-15.73-7.172-31.635-15.308-47.457-24.442c-15.726-9.079-30.727-18.738-44.875-28.788
			c-1.653-17.203-2.533-35.06-2.533-53.323s0.88-36.12,2.533-53.323c14.148-10.049,29.149-19.71,44.875-28.788
			c15.68-9.052,31.544-17.227,47.322-24.449c15.743,7.177,31.658,15.307,47.493,24.449c15.727,9.079,30.727,18.74,44.875,28.788
			c1.653,17.203,2.532,35.06,2.532,53.323S349.935,292.12,348.282,309.323z M382.999,113.265c7.211,17,24.071,28.957,43.668,28.957
			c11.433,0,21.933-4.068,30.131-10.833c1.713,1.9,3.232,3.928,4.48,6.093c11.731,20.319,2.616,52.944-25.009,89.514
			c-3.786,5.013-7.863,10.027-12.199,15.029c-16.701-17.107-36.163-33.848-57.703-49.677c-2.966-27.02-7.789-52.216-14.164-74.889
			C362.877,115.396,373.176,113.986,382.999,113.265z M368.571,217.832c15.704,12.358,30.044,25.164,42.66,38.168
			c-12.616,13.003-26.956,25.81-42.66,38.169c0.793-12.429,1.207-25.169,1.207-38.169S369.364,230.26,368.571,217.832z
			 M461.278,374.518c-14.197,24.589-55.875,30.47-109.074,20.016c6.375-22.671,11.197-47.866,14.163-74.882
			c21.539-15.829,41.001-32.571,57.703-49.677c4.336,5.002,8.413,10.016,12.199,15.029
			C463.894,321.574,473.009,354.199,461.278,374.518z"/>
        </g>


        <g>
            <path d="M256,199.111c-26.139,0-47.407,21.268-47.407,47.407c0,26.139,21.269,47.407,47.407,47.407s47.407-21.269,47.407-47.407
			C303.407,220.38,282.139,199.111,256,199.111z M256,274.963c-15.685,0-28.444-12.759-28.444-28.444s12.759-28.444,28.444-28.444
			s28.444,12.759,28.444,28.444C284.445,262.204,271.685,274.963,256,274.963z"/>
        </g>

    </symbol>

    <symbol id="gift" viewBox="0 0 512 512">

        <g>
            <path d="M32,271.692v192c0,17.664,14.368,32,32,32h160v-224H32z"/>
        </g>

        <g>
            <g>
                <path d="M480,143.692H378.752c7.264-4.96,13.504-9.888,17.856-14.304c25.824-25.952,25.824-68.192,0-94.144
			c-25.088-25.28-68.8-25.216-93.856,0c-13.888,13.92-50.688,70.592-45.6,108.448h-2.304c5.056-37.856-31.744-94.528-45.6-108.448
			c-25.088-25.216-68.8-25.216-93.856,0C89.6,61.196,89.6,103.436,115.36,129.388c4.384,4.416,10.624,9.344,17.888,14.304H32
			c-17.632,0-32,14.368-32,32v48c0,8.832,7.168,16,16,16h208v-64h64v64h208c8.832,0,16-7.168,16-16v-48
			C512,158.06,497.664,143.692,480,143.692z M222.112,142.636c0,0-1.344,1.056-5.92,1.056c-22.112,0-64.32-22.976-78.112-36.864
			c-13.408-13.504-13.408-35.52,0-49.024c6.496-6.528,15.104-10.112,24.256-10.112c9.12,0,17.728,3.584,24.224,10.112
			C208.128,79.5,229.568,134.924,222.112,142.636z M295.776,143.692c-4.544,0-5.888-1.024-5.888-1.056
			c-7.456-7.712,13.984-63.136,35.552-84.832c12.896-13.024,35.456-13.088,48.48,0c13.44,13.504,13.44,35.52,0,49.024
			C360.128,120.716,317.92,143.692,295.776,143.692z"/>
            </g>
        </g>

        <g>
            <path d="M288,271.692v224h160c17.664,0,32-14.336,32-32v-192H288z"/>
        </g>
    </symbol>

    <symbol id="report" viewBox="0 0 512 512">
        <path d="m76 240c12.101562 0 23.054688-4.855469 31.148438-12.652344l44.402343 22.199219c-.222656 1.808594-.550781 3.585937-.550781 5.453125 0 24.8125 20.1875 45 45 45s45-20.1875 45-45c0-6.925781-1.703125-13.410156-4.511719-19.277344l60.234375-60.234375c5.867188 2.808594 12.351563 4.511719 19.277344 4.511719 24.8125 0 45-20.1875 45-45 0-4.671875-.917969-9.089844-2.246094-13.328125l52.335938-39.242187c7.140625 4.769531 15.699218 7.570312 24.910156 7.570312 24.8125 0 45-20.1875 45-45s-20.1875-45-45-45-45 20.1875-45 45c0 4.671875.917969 9.089844 2.246094 13.328125l-52.335938 39.242187c-7.140625-4.769531-15.699218-7.570312-24.910156-7.570312-24.8125 0-45 20.1875-45 45 0 6.925781 1.703125 13.410156 4.511719 19.277344l-60.234375 60.234375c-5.867188-2.808594-12.351563-4.511719-19.277344-4.511719-12.101562 0-23.054688 4.855469-31.148438 12.652344l-44.402343-22.199219c.222656-1.808594.550781-3.585937.550781-5.453125 0-24.8125-20.1875-45-45-45s-45 20.1875-45 45 20.1875 45 45 45zm0 0"/>
        <path d="m497 482h-16v-317c0-8.289062-6.710938-15-15-15h-60c-8.289062 0-15 6.710938-15 15v317h-30v-227c0-8.289062-6.710938-15-15-15h-60c-8.289062 0-15 6.710938-15 15v227h-30v-107c0-8.289062-6.710938-15-15-15h-60c-8.289062 0-15 6.710938-15 15v107h-30v-167c0-8.289062-6.710938-15-15-15h-60c-8.289062 0-15 6.710938-15 15v167h-16c-8.289062 0-15 6.710938-15 15s6.710938 15 15 15h482c8.289062 0 15-6.710938 15-15s-6.710938-15-15-15zm0 0"/>
    </symbol>

</svg>